<?xml version="1.0" encoding="UTF-8"?>
<svg xmlns="http://www.w3.org/2000/svg" viewBox="0 0 256 256" width="256" height="256">
  <!-- Background circle -->
  <circle cx="128" cy="128" r="120" fill="#2563EB" opacity="0.1"/>

  <!-- Document/file base -->
  <path d="M72 32 h80 l40 40 v152 a8 8 0 0 1-8 8 H80 a8 8 0 0 1-8-8 V40 a8 8 0 0 1 8-8z"
        fill="#2563EB" opacity="0.85"/>

  <!-- Document fold corner -->
  <path d="M152 32 v32 a8 8 0 0 0 8 8 h32z"
        fill="#1D4ED8"/>

  <!-- Document lines (config file content) -->
  <rect x="92" y="90" width="72" height="6" rx="3" fill="white" opacity="0.6"/>
  <rect x="92" y="108" width="56" height="6" rx="3" fill="white" opacity="0.5"/>
  <rect x="92" y="126" width="64" height="6" rx="3" fill="white" opacity="0.4"/>
  <rect x="92" y="144" width="48" height="6" rx="3" fill="white" opacity="0.3"/>

  <!-- Shield overlay (backup/protection) -->
  <path d="M156 120 c0 0 32-8 32-8 v40 c0 24-32 44-32 44 c0 0-32-20-32-44 v-40 c0 0 32 8 32 8z"
        fill="#10B981" stroke="#059669" stroke-width="3"/>

  <!-- Checkmark inside shield -->
  <polyline points="142,156 152,168 172,144"
            fill="none" stroke="white" stroke-width="5" stroke-linecap="round" stroke-linejoin="round"/>

  <!-- Circular arrow (sync/backup) -->
  <path d="M56 172 a56 56 0 0 1-4-52"
        fill="none" stroke="#2563EB" stroke-width="6" stroke-linecap="round"/>
  <polygon points="56,168 48,180 64,180" fill="#2563EB"/>
</svg>
